<svg version="1.2" xmlns="http://www.w3.org/2000/svg" viewBox="0 0 384 512" width="384" height="512">
	<title>location-pin-solid-station</title>
	<style>
		.s0 { fill: #1e3050 } 
		.s1 { fill: #ffffff } 
	</style>
	<path id="Layer" class="s0" d="m384 192c0 87.4-117 243-168.3 307.2-12.3 15.3-35.1 15.3-47.4 0-51.3-64.2-168.3-219.8-168.3-307.2 0-106 86-192 192-192 106 0 192 86 192 192z"/>
	<path id="Layer 1" class="s1" d="m134.9 97.5c0-5.5 4.5-10 10-10h94.7c5.6 0 10 4.5 10 10v288.8c0 5.5-4.4 10-10 10h-94.7c-5.5 0-10-4.5-10-10z"/>
	<path id="Layer 4" class="s1" d="m128 81c0-16.6 13.4-30 30-30h67.3c16.6 0 30 13.4 30 30v67.3c0 16.6-13.4 30-30 30h-67.3c-16.6 0-30-13.4-30-30z"/>
	<path id="Layer 2" class="s0" d="m152.4 83.2c0-5.6 4.5-10 10-10h58.9c5.5 0 10 4.4 10 10v58.8c0 5.5-4.5 10-10 10h-58.9c-5.5 0-10-4.5-10-10z"/>
	<path id="Shape 1" class="s0" d="m186.3 177.7c0-1.2 0.9-2 2-2h7.8c1.1 0 2 0.8 2 2v7.8c0 1.1-0.9 2-2 2h-7.8c-1.1 0-2-0.9-2-2z"/>
	<path id="Shape 1 copy" class="s0" d="m208.6 177.7c0-1.2 0.9-2 2-2h7.8c1.1 0 2 0.8 2 2v7.8c0 1.1-0.9 2-2 2h-7.8c-1.1 0-2-0.9-2-2z"/>
	<path id="Shape 1 copy 2" class="s0" d="m163.9 177.7c0-1.2 0.9-2 2-2h7.9c1.1 0 2 0.8 2 2v7.8c0 1.1-0.9 2-2 2h-7.9c-1.1 0-2-0.9-2-2z"/>
	<path id="Shape 1 copy 3" class="s0" d="m186.3 198.7c0-1.1 0.9-2 2-2h7.8c1.1 0 2 0.9 2 2v7.8c0 1.1-0.9 2-2 2h-7.8c-1.1 0-2-0.9-2-2z"/>
	<path id="Shape 1 copy 4" class="s0" d="m208.6 198.7c0-1.1 0.9-2 2-2h7.8c1.1 0 2 0.9 2 2v7.8c0 1.1-0.9 2-2 2h-7.8c-1.1 0-2-0.9-2-2z"/>
	<path id="Shape 1 copy 5" class="s0" d="m163.9 198.7c0-1.1 0.9-2 2-2h7.9c1.1 0 2 0.9 2 2v7.8c0 1.1-0.9 2-2 2h-7.9c-1.1 0-2-0.9-2-2z"/>
	<path id="Shape 1 copy 6" class="s0" d="m186.3 219.7c0-1.1 0.9-2 2-2h7.8c1.1 0 2 0.9 2 2v7.8c0 1.1-0.9 2-2 2h-7.8c-1.1 0-2-0.9-2-2z"/>
	<path id="Shape 1 copy 7" class="s0" d="m208.6 219.7c0-1.1 0.9-2 2-2h7.8c1.1 0 2 0.9 2 2v7.8c0 1.1-0.9 2-2 2h-7.8c-1.1 0-2-0.9-2-2z"/>
	<path id="Shape 1 copy 8" class="s0" d="m163.9 219.7c0-1.1 0.9-2 2-2h7.9c1.1 0 2 0.9 2 2v7.8c0 1.1-0.9 2-2 2h-7.9c-1.1 0-2-0.9-2-2z"/>
</svg>